<mxfile host="app.diagrams.net" agent="Mozilla/5.0 (Windows NT 10.0; Win64; x64) AppleWebKit/537.36 (KHTML, like Gecko) Chrome/139.0.0.0 Safari/537.36 Edg/139.0.0.0" version="28.1.2">
  <diagram name="PÃ¡gina-1" id="78_wQrVvobNNCpphsz5z">
    <mxGraphModel dx="1034" dy="580" grid="1" gridSize="10" guides="1" tooltips="1" connect="1" arrows="1" fold="1" page="1" pageScale="1" pageWidth="827" pageHeight="1169" math="0" shadow="0">
      <root>
        <mxCell id="0" />
        <mxCell id="1" parent="0" />
        <mxCell id="2" value="CONTAS" style="shape=table;startSize=25;container=1;collapsible=0;childLayout=tableLayout;fixedRows=1;rowLines=1;fontStyle=1;align=center;resizeLast=1;" parent="1" vertex="1">
          <mxGeometry x="20" y="8" width="270" height="172" as="geometry" />
        </mxCell>
        <mxCell id="3" style="shape=tableRow;horizontal=0;startSize=0;swimlaneHead=0;swimlaneBody=0;fillColor=none;collapsible=0;dropTarget=0;points=[[0,0.5],[1,0.5]];portConstraint=eastwest;top=0;left=0;right=0;bottom=0;" parent="2" vertex="1">
          <mxGeometry y="25" width="270" height="49" as="geometry" />
        </mxCell>
        <mxCell id="4" value="INTEGER" style="shape=partialRectangle;connectable=0;fillColor=none;top=0;left=0;bottom=0;right=0;align=center;spacingLeft=2;overflow=hidden;fontSize=11;" parent="3" vertex="1">
          <mxGeometry width="70" height="49" as="geometry">
            <mxRectangle width="70" height="49" as="alternateBounds" />
          </mxGeometry>
        </mxCell>
        <mxCell id="5" value="conta_id" style="shape=partialRectangle;connectable=0;fillColor=none;top=0;left=0;bottom=0;right=0;align=center;spacingLeft=2;overflow=hidden;fontSize=11;" parent="3" vertex="1">
          <mxGeometry x="70" width="151" height="49" as="geometry">
            <mxRectangle width="151" height="49" as="alternateBounds" />
          </mxGeometry>
        </mxCell>
        <mxCell id="6" value="PK" style="shape=partialRectangle;connectable=0;fillColor=none;top=0;left=0;bottom=0;right=0;align=center;spacingLeft=2;overflow=hidden;fontSize=11;" parent="3" vertex="1">
          <mxGeometry x="221" width="49" height="49" as="geometry">
            <mxRectangle width="49" height="49" as="alternateBounds" />
          </mxGeometry>
        </mxCell>
        <mxCell id="7" style="shape=tableRow;horizontal=0;startSize=0;swimlaneHead=0;swimlaneBody=0;fillColor=none;collapsible=0;dropTarget=0;points=[[0,0.5],[1,0.5]];portConstraint=eastwest;top=0;left=0;right=0;bottom=0;" parent="2" vertex="1">
          <mxGeometry y="74" width="270" height="49" as="geometry" />
        </mxCell>
        <mxCell id="8" value="STRING" style="shape=partialRectangle;connectable=0;fillColor=none;top=0;left=0;bottom=0;right=0;align=center;spacingLeft=2;overflow=hidden;fontSize=11;" parent="7" vertex="1">
          <mxGeometry width="70" height="49" as="geometry">
            <mxRectangle width="70" height="49" as="alternateBounds" />
          </mxGeometry>
        </mxCell>
        <mxCell id="9" value="nome" style="shape=partialRectangle;connectable=0;fillColor=none;top=0;left=0;bottom=0;right=0;align=center;spacingLeft=2;overflow=hidden;fontSize=11;" parent="7" vertex="1">
          <mxGeometry x="70" width="151" height="49" as="geometry">
            <mxRectangle width="151" height="49" as="alternateBounds" />
          </mxGeometry>
        </mxCell>
        <mxCell id="10" value="" style="shape=partialRectangle;connectable=0;fillColor=none;top=0;left=0;bottom=0;right=0;align=left;spacingLeft=2;overflow=hidden;fontSize=11;" parent="7" vertex="1">
          <mxGeometry x="221" width="49" height="49" as="geometry">
            <mxRectangle width="49" height="49" as="alternateBounds" />
          </mxGeometry>
        </mxCell>
        <mxCell id="11" style="shape=tableRow;horizontal=0;startSize=0;swimlaneHead=0;swimlaneBody=0;fillColor=none;collapsible=0;dropTarget=0;points=[[0,0.5],[1,0.5]];portConstraint=eastwest;top=0;left=0;right=0;bottom=0;" parent="2" vertex="1">
          <mxGeometry y="123" width="270" height="49" as="geometry" />
        </mxCell>
        <mxCell id="12" value="DECIMAL" style="shape=partialRectangle;connectable=0;fillColor=none;top=0;left=0;bottom=0;right=0;align=center;spacingLeft=2;overflow=hidden;fontSize=11;" parent="11" vertex="1">
          <mxGeometry width="70" height="49" as="geometry">
            <mxRectangle width="70" height="49" as="alternateBounds" />
          </mxGeometry>
        </mxCell>
        <mxCell id="13" value="saldo_inicial" style="shape=partialRectangle;connectable=0;fillColor=none;top=0;left=0;bottom=0;right=0;align=center;spacingLeft=2;overflow=hidden;fontSize=11;" parent="11" vertex="1">
          <mxGeometry x="70" width="151" height="49" as="geometry">
            <mxRectangle width="151" height="49" as="alternateBounds" />
          </mxGeometry>
        </mxCell>
        <mxCell id="14" value="" style="shape=partialRectangle;connectable=0;fillColor=none;top=0;left=0;bottom=0;right=0;align=left;spacingLeft=2;overflow=hidden;fontSize=11;" parent="11" vertex="1">
          <mxGeometry x="221" width="49" height="49" as="geometry">
            <mxRectangle width="49" height="49" as="alternateBounds" />
          </mxGeometry>
        </mxCell>
        <mxCell id="15" value="CATEGORIAS" style="shape=table;startSize=25;container=1;collapsible=0;childLayout=tableLayout;fixedRows=1;rowLines=1;fontStyle=1;align=center;resizeLast=1;" parent="1" vertex="1">
          <mxGeometry x="394" y="8" width="256" height="172" as="geometry" />
        </mxCell>
        <mxCell id="16" style="shape=tableRow;horizontal=0;startSize=0;swimlaneHead=0;swimlaneBody=0;fillColor=none;collapsible=0;dropTarget=0;points=[[0,0.5],[1,0.5]];portConstraint=eastwest;top=0;left=0;right=0;bottom=0;" parent="15" vertex="1">
          <mxGeometry y="25" width="256" height="49" as="geometry" />
        </mxCell>
        <mxCell id="17" value="INTEGER" style="shape=partialRectangle;connectable=0;fillColor=none;top=0;left=0;bottom=0;right=0;align=center;spacingLeft=2;overflow=hidden;fontSize=11;" parent="16" vertex="1">
          <mxGeometry width="66" height="49" as="geometry">
            <mxRectangle width="66" height="49" as="alternateBounds" />
          </mxGeometry>
        </mxCell>
        <mxCell id="18" value="categoria_id" style="shape=partialRectangle;connectable=0;fillColor=none;top=0;left=0;bottom=0;right=0;align=center;spacingLeft=2;overflow=hidden;fontSize=11;" parent="16" vertex="1">
          <mxGeometry x="66" width="155" height="49" as="geometry">
            <mxRectangle width="155" height="49" as="alternateBounds" />
          </mxGeometry>
        </mxCell>
        <mxCell id="19" value="PK" style="shape=partialRectangle;connectable=0;fillColor=none;top=0;left=0;bottom=0;right=0;align=center;spacingLeft=2;overflow=hidden;fontSize=11;" parent="16" vertex="1">
          <mxGeometry x="221" width="35" height="49" as="geometry">
            <mxRectangle width="35" height="49" as="alternateBounds" />
          </mxGeometry>
        </mxCell>
        <mxCell id="20" style="shape=tableRow;horizontal=0;startSize=0;swimlaneHead=0;swimlaneBody=0;fillColor=none;collapsible=0;dropTarget=0;points=[[0,0.5],[1,0.5]];portConstraint=eastwest;top=0;left=0;right=0;bottom=0;" parent="15" vertex="1">
          <mxGeometry y="74" width="256" height="49" as="geometry" />
        </mxCell>
        <mxCell id="21" value="STRING" style="shape=partialRectangle;connectable=0;fillColor=none;top=0;left=0;bottom=0;right=0;align=center;spacingLeft=2;overflow=hidden;fontSize=11;" parent="20" vertex="1">
          <mxGeometry width="66" height="49" as="geometry">
            <mxRectangle width="66" height="49" as="alternateBounds" />
          </mxGeometry>
        </mxCell>
        <mxCell id="22" value="nome" style="shape=partialRectangle;connectable=0;fillColor=none;top=0;left=0;bottom=0;right=0;align=center;spacingLeft=2;overflow=hidden;fontSize=11;" parent="20" vertex="1">
          <mxGeometry x="66" width="155" height="49" as="geometry">
            <mxRectangle width="155" height="49" as="alternateBounds" />
          </mxGeometry>
        </mxCell>
        <mxCell id="23" value="" style="shape=partialRectangle;connectable=0;fillColor=none;top=0;left=0;bottom=0;right=0;align=center;spacingLeft=2;overflow=hidden;fontSize=11;" parent="20" vertex="1">
          <mxGeometry x="221" width="35" height="49" as="geometry">
            <mxRectangle width="35" height="49" as="alternateBounds" />
          </mxGeometry>
        </mxCell>
        <mxCell id="24" style="shape=tableRow;horizontal=0;startSize=0;swimlaneHead=0;swimlaneBody=0;fillColor=none;collapsible=0;dropTarget=0;points=[[0,0.5],[1,0.5]];portConstraint=eastwest;top=0;left=0;right=0;bottom=0;" parent="15" vertex="1">
          <mxGeometry y="123" width="256" height="49" as="geometry" />
        </mxCell>
        <mxCell id="25" value="STRING" style="shape=partialRectangle;connectable=0;fillColor=none;top=0;left=0;bottom=0;right=0;align=center;spacingLeft=2;overflow=hidden;fontSize=11;" parent="24" vertex="1">
          <mxGeometry width="66" height="49" as="geometry">
            <mxRectangle width="66" height="49" as="alternateBounds" />
          </mxGeometry>
        </mxCell>
        <mxCell id="26" value="tipo" style="shape=partialRectangle;connectable=0;fillColor=none;top=0;left=0;bottom=0;right=0;align=center;spacingLeft=2;overflow=hidden;fontSize=11;" parent="24" vertex="1">
          <mxGeometry x="66" width="155" height="49" as="geometry">
            <mxRectangle width="155" height="49" as="alternateBounds" />
          </mxGeometry>
        </mxCell>
        <mxCell id="27" value="" style="shape=partialRectangle;connectable=0;fillColor=none;top=0;left=0;bottom=0;right=0;align=center;spacingLeft=2;overflow=hidden;fontSize=11;" parent="24" vertex="1">
          <mxGeometry x="221" width="35" height="49" as="geometry">
            <mxRectangle width="35" height="49" as="alternateBounds" />
          </mxGeometry>
        </mxCell>
        <mxCell id="28" value="TAGS" style="shape=table;startSize=25;container=1;collapsible=0;childLayout=tableLayout;fixedRows=1;rowLines=1;fontStyle=1;align=center;resizeLast=1;" parent="1" vertex="1">
          <mxGeometry x="570" y="360" width="216" height="129" as="geometry" />
        </mxCell>
        <mxCell id="29" style="shape=tableRow;horizontal=0;startSize=0;swimlaneHead=0;swimlaneBody=0;fillColor=none;collapsible=0;dropTarget=0;points=[[0,0.5],[1,0.5]];portConstraint=eastwest;top=0;left=0;right=0;bottom=0;" parent="28" vertex="1">
          <mxGeometry y="25" width="216" height="52" as="geometry" />
        </mxCell>
        <mxCell id="30" value="INTEGER" style="shape=partialRectangle;connectable=0;fillColor=none;top=0;left=0;bottom=0;right=0;align=center;spacingLeft=2;overflow=hidden;fontSize=11;" parent="29" vertex="1">
          <mxGeometry width="60" height="52" as="geometry">
            <mxRectangle width="60" height="52" as="alternateBounds" />
          </mxGeometry>
        </mxCell>
        <mxCell id="31" value="tag_id" style="shape=partialRectangle;connectable=0;fillColor=none;top=0;left=0;bottom=0;right=0;align=center;spacingLeft=2;overflow=hidden;fontSize=11;" parent="29" vertex="1">
          <mxGeometry x="60" width="117" height="52" as="geometry">
            <mxRectangle width="117" height="52" as="alternateBounds" />
          </mxGeometry>
        </mxCell>
        <mxCell id="32" value="PK" style="shape=partialRectangle;connectable=0;fillColor=none;top=0;left=0;bottom=0;right=0;align=center;spacingLeft=2;overflow=hidden;fontSize=11;" parent="29" vertex="1">
          <mxGeometry x="177" width="39" height="52" as="geometry">
            <mxRectangle width="39" height="52" as="alternateBounds" />
          </mxGeometry>
        </mxCell>
        <mxCell id="33" style="shape=tableRow;horizontal=0;startSize=0;swimlaneHead=0;swimlaneBody=0;fillColor=none;collapsible=0;dropTarget=0;points=[[0,0.5],[1,0.5]];portConstraint=eastwest;top=0;left=0;right=0;bottom=0;" parent="28" vertex="1">
          <mxGeometry y="77" width="216" height="52" as="geometry" />
        </mxCell>
        <mxCell id="34" value="STRING" style="shape=partialRectangle;connectable=0;fillColor=none;top=0;left=0;bottom=0;right=0;align=center;spacingLeft=2;overflow=hidden;fontSize=11;" parent="33" vertex="1">
          <mxGeometry width="60" height="52" as="geometry">
            <mxRectangle width="60" height="52" as="alternateBounds" />
          </mxGeometry>
        </mxCell>
        <mxCell id="35" value="nome" style="shape=partialRectangle;connectable=0;fillColor=none;top=0;left=0;bottom=0;right=0;align=center;spacingLeft=2;overflow=hidden;fontSize=11;" parent="33" vertex="1">
          <mxGeometry x="60" width="117" height="52" as="geometry">
            <mxRectangle width="117" height="52" as="alternateBounds" />
          </mxGeometry>
        </mxCell>
        <mxCell id="36" value="" style="shape=partialRectangle;connectable=0;fillColor=none;top=0;left=0;bottom=0;right=0;align=center;spacingLeft=2;overflow=hidden;fontSize=11;" parent="33" vertex="1">
          <mxGeometry x="177" width="39" height="52" as="geometry">
            <mxRectangle width="39" height="52" as="alternateBounds" />
          </mxGeometry>
        </mxCell>
        <mxCell id="37" value="TRANSACOES" style="shape=table;startSize=25;container=1;collapsible=0;childLayout=tableLayout;fixedRows=1;rowLines=1;fontStyle=1;align=center;resizeLast=1;" parent="1" vertex="1">
          <mxGeometry x="190" y="281.5" width="260" height="301" as="geometry" />
        </mxCell>
        <mxCell id="38" style="shape=tableRow;horizontal=0;startSize=0;swimlaneHead=0;swimlaneBody=0;fillColor=none;collapsible=0;dropTarget=0;points=[[0,0.5],[1,0.5]];portConstraint=eastwest;top=0;left=0;right=0;bottom=0;" parent="37" vertex="1">
          <mxGeometry y="25" width="260" height="46" as="geometry" />
        </mxCell>
        <mxCell id="39" value="INTEGER" style="shape=partialRectangle;connectable=0;fillColor=none;top=0;left=0;bottom=0;right=0;align=center;spacingLeft=2;overflow=hidden;fontSize=11;" parent="38" vertex="1">
          <mxGeometry width="60" height="46" as="geometry">
            <mxRectangle width="60" height="46" as="alternateBounds" />
          </mxGeometry>
        </mxCell>
        <mxCell id="40" value="transacao_id" style="shape=partialRectangle;connectable=0;fillColor=none;top=0;left=0;bottom=0;right=0;align=center;spacingLeft=2;overflow=hidden;fontSize=11;" parent="38" vertex="1">
          <mxGeometry x="60" width="164" height="46" as="geometry">
            <mxRectangle width="164" height="46" as="alternateBounds" />
          </mxGeometry>
        </mxCell>
        <mxCell id="41" value="PK" style="shape=partialRectangle;connectable=0;fillColor=none;top=0;left=0;bottom=0;right=0;align=center;spacingLeft=2;overflow=hidden;fontSize=11;" parent="38" vertex="1">
          <mxGeometry x="224" width="36" height="46" as="geometry">
            <mxRectangle width="36" height="46" as="alternateBounds" />
          </mxGeometry>
        </mxCell>
        <mxCell id="42" style="shape=tableRow;horizontal=0;startSize=0;swimlaneHead=0;swimlaneBody=0;fillColor=none;collapsible=0;dropTarget=0;points=[[0,0.5],[1,0.5]];portConstraint=eastwest;top=0;left=0;right=0;bottom=0;" parent="37" vertex="1">
          <mxGeometry y="71" width="260" height="46" as="geometry" />
        </mxCell>
        <mxCell id="43" value="STRING" style="shape=partialRectangle;connectable=0;fillColor=none;top=0;left=0;bottom=0;right=0;align=center;spacingLeft=2;overflow=hidden;fontSize=11;" parent="42" vertex="1">
          <mxGeometry width="60" height="46" as="geometry">
            <mxRectangle width="60" height="46" as="alternateBounds" />
          </mxGeometry>
        </mxCell>
        <mxCell id="44" value="descricao" style="shape=partialRectangle;connectable=0;fillColor=none;top=0;left=0;bottom=0;right=0;align=center;spacingLeft=2;overflow=hidden;fontSize=11;" parent="42" vertex="1">
          <mxGeometry x="60" width="164" height="46" as="geometry">
            <mxRectangle width="164" height="46" as="alternateBounds" />
          </mxGeometry>
        </mxCell>
        <mxCell id="45" value="" style="shape=partialRectangle;connectable=0;fillColor=none;top=0;left=0;bottom=0;right=0;align=left;spacingLeft=2;overflow=hidden;fontSize=11;" parent="42" vertex="1">
          <mxGeometry x="224" width="36" height="46" as="geometry">
            <mxRectangle width="36" height="46" as="alternateBounds" />
          </mxGeometry>
        </mxCell>
        <mxCell id="46" style="shape=tableRow;horizontal=0;startSize=0;swimlaneHead=0;swimlaneBody=0;fillColor=none;collapsible=0;dropTarget=0;points=[[0,0.5],[1,0.5]];portConstraint=eastwest;top=0;left=0;right=0;bottom=0;" parent="37" vertex="1">
          <mxGeometry y="117" width="260" height="46" as="geometry" />
        </mxCell>
        <mxCell id="47" value="DECIMAL" style="shape=partialRectangle;connectable=0;fillColor=none;top=0;left=0;bottom=0;right=0;align=center;spacingLeft=2;overflow=hidden;fontSize=11;" parent="46" vertex="1">
          <mxGeometry width="60" height="46" as="geometry">
            <mxRectangle width="60" height="46" as="alternateBounds" />
          </mxGeometry>
        </mxCell>
        <mxCell id="48" value="valor" style="shape=partialRectangle;connectable=0;fillColor=none;top=0;left=0;bottom=0;right=0;align=center;spacingLeft=2;overflow=hidden;fontSize=11;" parent="46" vertex="1">
          <mxGeometry x="60" width="164" height="46" as="geometry">
            <mxRectangle width="164" height="46" as="alternateBounds" />
          </mxGeometry>
        </mxCell>
        <mxCell id="49" value="" style="shape=partialRectangle;connectable=0;fillColor=none;top=0;left=0;bottom=0;right=0;align=left;spacingLeft=2;overflow=hidden;fontSize=11;" parent="46" vertex="1">
          <mxGeometry x="224" width="36" height="46" as="geometry">
            <mxRectangle width="36" height="46" as="alternateBounds" />
          </mxGeometry>
        </mxCell>
        <mxCell id="50" style="shape=tableRow;horizontal=0;startSize=0;swimlaneHead=0;swimlaneBody=0;fillColor=none;collapsible=0;dropTarget=0;points=[[0,0.5],[1,0.5]];portConstraint=eastwest;top=0;left=0;right=0;bottom=0;" parent="37" vertex="1">
          <mxGeometry y="163" width="260" height="46" as="geometry" />
        </mxCell>
        <mxCell id="51" value="DATE" style="shape=partialRectangle;connectable=0;fillColor=none;top=0;left=0;bottom=0;right=0;align=center;spacingLeft=2;overflow=hidden;fontSize=11;" parent="50" vertex="1">
          <mxGeometry width="60" height="46" as="geometry">
            <mxRectangle width="60" height="46" as="alternateBounds" />
          </mxGeometry>
        </mxCell>
        <mxCell id="52" value="data" style="shape=partialRectangle;connectable=0;fillColor=none;top=0;left=0;bottom=0;right=0;align=center;spacingLeft=2;overflow=hidden;fontSize=11;" parent="50" vertex="1">
          <mxGeometry x="60" width="164" height="46" as="geometry">
            <mxRectangle width="164" height="46" as="alternateBounds" />
          </mxGeometry>
        </mxCell>
        <mxCell id="53" value="" style="shape=partialRectangle;connectable=0;fillColor=none;top=0;left=0;bottom=0;right=0;align=left;spacingLeft=2;overflow=hidden;fontSize=11;" parent="50" vertex="1">
          <mxGeometry x="224" width="36" height="46" as="geometry">
            <mxRectangle width="36" height="46" as="alternateBounds" />
          </mxGeometry>
        </mxCell>
        <mxCell id="54" style="shape=tableRow;horizontal=0;startSize=0;swimlaneHead=0;swimlaneBody=0;fillColor=none;collapsible=0;dropTarget=0;points=[[0,0.5],[1,0.5]];portConstraint=eastwest;top=0;left=0;right=0;bottom=0;" parent="37" vertex="1">
          <mxGeometry y="209" width="260" height="46" as="geometry" />
        </mxCell>
        <mxCell id="55" value="INTEGER" style="shape=partialRectangle;connectable=0;fillColor=none;top=0;left=0;bottom=0;right=0;align=center;spacingLeft=2;overflow=hidden;fontSize=11;" parent="54" vertex="1">
          <mxGeometry width="60" height="46" as="geometry">
            <mxRectangle width="60" height="46" as="alternateBounds" />
          </mxGeometry>
        </mxCell>
        <mxCell id="56" value="conta_id" style="shape=partialRectangle;connectable=0;fillColor=none;top=0;left=0;bottom=0;right=0;align=center;spacingLeft=2;overflow=hidden;fontSize=11;" parent="54" vertex="1">
          <mxGeometry x="60" width="164" height="46" as="geometry">
            <mxRectangle width="164" height="46" as="alternateBounds" />
          </mxGeometry>
        </mxCell>
        <mxCell id="57" value="FK" style="shape=partialRectangle;connectable=0;fillColor=none;top=0;left=0;bottom=0;right=0;align=center;spacingLeft=2;overflow=hidden;fontSize=11;" parent="54" vertex="1">
          <mxGeometry x="224" width="36" height="46" as="geometry">
            <mxRectangle width="36" height="46" as="alternateBounds" />
          </mxGeometry>
        </mxCell>
        <mxCell id="58" style="shape=tableRow;horizontal=0;startSize=0;swimlaneHead=0;swimlaneBody=0;fillColor=none;collapsible=0;dropTarget=0;points=[[0,0.5],[1,0.5]];portConstraint=eastwest;top=0;left=0;right=0;bottom=0;" parent="37" vertex="1">
          <mxGeometry y="255" width="260" height="46" as="geometry" />
        </mxCell>
        <mxCell id="59" value="INTEGER" style="shape=partialRectangle;connectable=0;fillColor=none;top=0;left=0;bottom=0;right=0;align=center;spacingLeft=2;overflow=hidden;fontSize=11;" parent="58" vertex="1">
          <mxGeometry width="60" height="46" as="geometry">
            <mxRectangle width="60" height="46" as="alternateBounds" />
          </mxGeometry>
        </mxCell>
        <mxCell id="60" value="categoria_id" style="shape=partialRectangle;connectable=0;fillColor=none;top=0;left=0;bottom=0;right=0;align=center;spacingLeft=2;overflow=hidden;fontSize=11;" parent="58" vertex="1">
          <mxGeometry x="60" width="164" height="46" as="geometry">
            <mxRectangle width="164" height="46" as="alternateBounds" />
          </mxGeometry>
        </mxCell>
        <mxCell id="61" value="FK" style="shape=partialRectangle;connectable=0;fillColor=none;top=0;left=0;bottom=0;right=0;align=center;spacingLeft=2;overflow=hidden;fontSize=11;" parent="58" vertex="1">
          <mxGeometry x="224" width="36" height="46" as="geometry">
            <mxRectangle width="36" height="46" as="alternateBounds" />
          </mxGeometry>
        </mxCell>
        <mxCell id="62" value="TRANSACAO_TAG" style="shape=table;startSize=27;container=1;collapsible=0;childLayout=tableLayout;fixedRows=1;rowLines=1;fontStyle=1;align=center;resizeLast=1;" parent="1" vertex="1">
          <mxGeometry x="360" y="683" width="290" height="131" as="geometry" />
        </mxCell>
        <mxCell id="63" style="shape=tableRow;horizontal=0;startSize=0;swimlaneHead=0;swimlaneBody=0;fillColor=none;collapsible=0;dropTarget=0;points=[[0,0.5],[1,0.5]];portConstraint=eastwest;top=0;left=0;right=0;bottom=0;" parent="62" vertex="1">
          <mxGeometry y="27" width="290" height="52" as="geometry" />
        </mxCell>
        <mxCell id="64" value="INTEGER" style="shape=partialRectangle;connectable=0;fillColor=none;top=0;left=0;bottom=0;right=0;align=center;spacingLeft=2;overflow=hidden;fontSize=11;" parent="63" vertex="1">
          <mxGeometry width="70" height="52" as="geometry">
            <mxRectangle width="70" height="52" as="alternateBounds" />
          </mxGeometry>
        </mxCell>
        <mxCell id="65" value="transacao_id" style="shape=partialRectangle;connectable=0;fillColor=none;top=0;left=0;bottom=0;right=0;align=center;spacingLeft=2;overflow=hidden;fontSize=11;" parent="63" vertex="1">
          <mxGeometry x="70" width="155" height="52" as="geometry">
            <mxRectangle width="155" height="52" as="alternateBounds" />
          </mxGeometry>
        </mxCell>
        <mxCell id="66" value="PK, FK" style="shape=partialRectangle;connectable=0;fillColor=none;top=0;left=0;bottom=0;right=0;align=center;spacingLeft=2;overflow=hidden;fontSize=11;" parent="63" vertex="1">
          <mxGeometry x="225" width="65" height="52" as="geometry">
            <mxRectangle width="65" height="52" as="alternateBounds" />
          </mxGeometry>
        </mxCell>
        <mxCell id="67" style="shape=tableRow;horizontal=0;startSize=0;swimlaneHead=0;swimlaneBody=0;fillColor=none;collapsible=0;dropTarget=0;points=[[0,0.5],[1,0.5]];portConstraint=eastwest;top=0;left=0;right=0;bottom=0;" parent="62" vertex="1">
          <mxGeometry y="79" width="290" height="52" as="geometry" />
        </mxCell>
        <mxCell id="68" value="INTEGER" style="shape=partialRectangle;connectable=0;fillColor=none;top=0;left=0;bottom=0;right=0;align=center;spacingLeft=2;overflow=hidden;fontSize=11;" parent="67" vertex="1">
          <mxGeometry width="70" height="52" as="geometry">
            <mxRectangle width="70" height="52" as="alternateBounds" />
          </mxGeometry>
        </mxCell>
        <mxCell id="69" value="tag_id" style="shape=partialRectangle;connectable=0;fillColor=none;top=0;left=0;bottom=0;right=0;align=center;spacingLeft=2;overflow=hidden;fontSize=11;" parent="67" vertex="1">
          <mxGeometry x="70" width="155" height="52" as="geometry">
            <mxRectangle width="155" height="52" as="alternateBounds" />
          </mxGeometry>
        </mxCell>
        <mxCell id="70" value="PK, FK" style="shape=partialRectangle;connectable=0;fillColor=none;top=0;left=0;bottom=0;right=0;align=center;spacingLeft=2;overflow=hidden;fontSize=11;" parent="67" vertex="1">
          <mxGeometry x="225" width="65" height="52" as="geometry">
            <mxRectangle width="65" height="52" as="alternateBounds" />
          </mxGeometry>
        </mxCell>
        <mxCell id="71" value="possui" style="curved=1;startArrow=ERmandOne;startSize=10;;endArrow=ERzeroToMany;endSize=10;;exitX=0.5;exitY=1;entryX=0;entryY=0.07;" parent="1" source="2" target="37" edge="1">
          <mxGeometry relative="1" as="geometry">
            <Array as="points">
              <mxPoint x="130" y="230" />
            </Array>
          </mxGeometry>
        </mxCell>
        <mxCell id="72" value="classifica" style="curved=1;startArrow=ERmandOne;startSize=10;;endArrow=ERzeroToMany;endSize=10;;exitX=0.5;exitY=1;entryX=1;entryY=0.07;" parent="1" source="15" target="37" edge="1">
          <mxGeometry relative="1" as="geometry">
            <Array as="points">
              <mxPoint x="513" y="230" />
            </Array>
          </mxGeometry>
        </mxCell>
        <mxCell id="73" value="contÃ©m" style="curved=1;startArrow=ERmandOne;startSize=10;;endArrow=ERzeroToMany;endSize=10;;exitX=0.5;exitY=1;entryX=0.13;entryY=0;" parent="1" source="37" target="62" edge="1">
          <mxGeometry relative="1" as="geometry">
            <Array as="points">
              <mxPoint x="321" y="632" />
            </Array>
          </mxGeometry>
        </mxCell>
        <mxCell id="74" value="categoriza" style="curved=1;startArrow=ERmandOne;startSize=10;;endArrow=ERzeroToMany;endSize=10;;exitX=0.5;exitY=1;entryX=0.88;entryY=0;" parent="1" source="28" target="62" edge="1">
          <mxGeometry relative="1" as="geometry">
            <Array as="points">
              <mxPoint x="684" y="632" />
            </Array>
          </mxGeometry>
        </mxCell>
      </root>
    </mxGraphModel>
  </diagram>
</mxfile>
